HIERARCHY
ROOT Hips
{
	OFFSET -14.64140 90.27770 -84.91600
	CHANNELS 6 Xposition Yposition Zposition Zrotation Xrotation Yrotation
	JOINT Spine
	{
		OFFSET 0.00000 13.20850 -1.60436
		CHANNELS 3 Zrotation Xrotation Yrotation
		JOINT Spine1
		{
			OFFSET 0.00000 8.61716 0.00000
			CHANNELS 3 Zrotation Xrotation Yrotation
			JOINT Spine2
			{
				OFFSET 0.00000 8.61717 0.00000
				CHANNELS 3 Zrotation Xrotation Yrotation
				JOINT Spine3
				{
					OFFSET 0.00000 8.61717 0.00000
					CHANNELS 3 Zrotation Xrotation Yrotation
					JOINT Neck
					{
						OFFSET 0.00000 11.07920 1.10792
						CHANNELS 3 Zrotation Xrotation Yrotation
						JOINT Neck1
						{
							OFFSET 0.00000 7.08032 0.00000
							CHANNELS 3 Zrotation Xrotation Yrotation
							JOINT Head
							{
								OFFSET 0.00000 7.08031 0.00000
								CHANNELS 3 Zrotation Xrotation Yrotation
								End site
								{
									OFFSET 0.00000 0.00000 0.00000
								}
							}
						}
					}
					JOINT RightShoulder
					{
						OFFSET -0.01000 7.91373 5.19711
						CHANNELS 3 Zrotation Xrotation Yrotation
						JOINT RightArm
						{
							OFFSET -18.41580 0.00000 0.00000
							CHANNELS 3 Zrotation Xrotation Yrotation
							JOINT RightForeArm
							{
								OFFSET -29.11090 0.00000 0.00000
								CHANNELS 3 Zrotation Xrotation Yrotation
								JOINT RightHand
								{
									OFFSET -24.65040 0.00000 0.00000
									CHANNELS 3 Zrotation Xrotation Yrotation
									JOINT RightHandThumb1
									{
										OFFSET -5.35114 -0.85590 3.97906
										CHANNELS 3 Zrotation Xrotation Yrotation
										JOINT RightHandThumb2
										{
											OFFSET -4.52789 0.00000 0.00000
											CHANNELS 3 Zrotation Xrotation Yrotation
											JOINT RightHandThumb3
											{
												OFFSET -2.46976 0.00000 0.00000
												CHANNELS 3 Zrotation Xrotation Yrotation
												End site
												{
													OFFSET 0.00000 0.00000 0.00000
												}
											}
										}
									}
									JOINT RightHandIndex1
									{
										OFFSET -14.26970 0.00000 2.88139
										CHANNELS 3 Zrotation Xrotation Yrotation
										JOINT RightHandIndex2
										{
											OFFSET -5.48836 0.00000 0.00000
											CHANNELS 3 Zrotation Xrotation Yrotation
											JOINT RightHandIndex3
											{
												OFFSET -3.01859 0.00000 0.00000
												CHANNELS 3 Zrotation Xrotation Yrotation
												End site
												{
													OFFSET 0.00000 0.00000 0.00000
												}
											}
										}
									}
									JOINT RightHandMiddle1
									{
										OFFSET -14.26970 0.00000 -0.09147
										CHANNELS 3 Zrotation Xrotation Yrotation
										JOINT RightHandMiddle2
										{
											OFFSET -6.17441 0.00000 0.00000
											CHANNELS 3 Zrotation Xrotation Yrotation
											JOINT RightHandMiddle3
											{
												OFFSET -3.56743 0.00000 0.00000
												CHANNELS 3 Zrotation Xrotation Yrotation
												End site
												{
													OFFSET 0.00000 0.00000 0.00000
												}
											}
										}
									}
									JOINT RightHandRing1
									{
										OFFSET -12.69180 0.00000 -3.06433
										CHANNELS 3 Zrotation Xrotation Yrotation
										JOINT RightHandRing2
										{
											OFFSET -5.62556 0.00000 0.00000
											CHANNELS 3 Zrotation Xrotation Yrotation
											JOINT RightHandRing3
											{
												OFFSET -3.56744 0.00000 0.00000
												CHANNELS 3 Zrotation Xrotation Yrotation
												End site
												{
													OFFSET 0.00000 0.00000 0.00000
												}
											}
										}
									}
									JOINT RightHandPinky1
									{
										OFFSET -11.11390 0.00000 -6.03719
										CHANNELS 3 Zrotation Xrotation Yrotation
										JOINT RightHandPinky2
										{
											OFFSET -4.52789 0.00000 0.00000
											CHANNELS 3 Zrotation Xrotation Yrotation
											JOINT RightHandPinky3
											{
												OFFSET -2.46976 0.00000 0.00000
												CHANNELS 3 Zrotation Xrotation Yrotation
												End site
												{
													OFFSET 0.00000 0.00000 0.00000
												}
											}
										}
									}
								}
							}
						}
					}
					JOINT LeftShoulder
					{
						OFFSET 0.01000 7.91373 5.19711
						CHANNELS 3 Zrotation Xrotation Yrotation
						JOINT LeftArm
						{
							OFFSET 18.41580 0.00000 0.00000
							CHANNELS 3 Zrotation Xrotation Yrotation
							JOINT LeftForeArm
							{
								OFFSET 29.11090 0.00000 0.00000
								CHANNELS 3 Zrotation Xrotation Yrotation
								JOINT LeftHand
								{
									OFFSET 24.65040 0.00000 0.00000
									CHANNELS 3 Zrotation Xrotation Yrotation
									JOINT LeftHandThumb1
									{
										OFFSET 5.35114 -0.85590 3.97906
										CHANNELS 3 Zrotation Xrotation Yrotation
										JOINT LeftHandThumb2
										{
											OFFSET 4.52789 0.00000 0.00000
											CHANNELS 3 Zrotation Xrotation Yrotation
											JOINT LeftHandThumb3
											{
												OFFSET 2.46977 0.00000 0.00000
												CHANNELS 3 Zrotation Xrotation Yrotation
												End site
												{
													OFFSET 0.00000 0.00000 0.00000
												}
											}
										}
									}
									JOINT LeftHandIndex1
									{
										OFFSET 14.26970 0.00000 2.88139
										CHANNELS 3 Zrotation Xrotation Yrotation
										JOINT LeftHandIndex2
										{
											OFFSET 5.48836 0.00000 0.00000
											CHANNELS 3 Zrotation Xrotation Yrotation
											JOINT LeftHandIndex3
											{
												OFFSET 3.01859 0.00000 0.00000
												CHANNELS 3 Zrotation Xrotation Yrotation
												End site
												{
													OFFSET 0.00000 0.00000 0.00000
												}
											}
										}
									}
									JOINT LeftHandMiddle1
									{
										OFFSET 14.26970 0.00000 -0.09147
										CHANNELS 3 Zrotation Xrotation Yrotation
										JOINT LeftHandMiddle2
										{
											OFFSET 6.17440 0.00000 0.00000
											CHANNELS 3 Zrotation Xrotation Yrotation
											JOINT LeftHandMiddle3
											{
												OFFSET 3.56744 0.00000 0.00000
												CHANNELS 3 Zrotation Xrotation Yrotation
												End site
												{
													OFFSET 0.00000 0.00000 0.00000
												}
											}
										}
									}
									JOINT LeftHandRing1
									{
										OFFSET 12.69180 0.00000 -3.06433
										CHANNELS 3 Zrotation Xrotation Yrotation
										JOINT LeftHandRing2
										{
											OFFSET 5.62556 0.00000 0.00000
											CHANNELS 3 Zrotation Xrotation Yrotation
											JOINT LeftHandRing3
											{
												OFFSET 3.56744 0.00000 0.00000
												CHANNELS 3 Zrotation Xrotation Yrotation
												End site
												{
													OFFSET 0.00000 0.00000 0.00000
												}
											}
										}
									}
									JOINT LeftHandPinky1
									{
										OFFSET 11.11390 0.00000 -6.03719
										CHANNELS 3 Zrotation Xrotation Yrotation
										JOINT LeftHandPinky2
										{
											OFFSET 4.52789 0.00000 0.00000
											CHANNELS 3 Zrotation Xrotation Yrotation
											JOINT LeftHandPinky3
											{
												OFFSET 2.46976 0.00000 0.00000
												CHANNELS 3 Zrotation Xrotation Yrotation
												End site
												{
													OFFSET 0.00000 0.00000 0.00000
												}
											}
										}
									}
								}
							}
						}
					}
					JOINT pCube4
					{
						OFFSET 0.00000 10.91090 1.10792
						CHANNELS 3 Zrotation Xrotation Yrotation
						End site
						{
							OFFSET 0.00000 0.00000 0.00000
						}
					}
				}
			}
		}
	}
	JOINT RightUpLeg
	{
		OFFSET -9.98441 0.00000 0.00000
		CHANNELS 3 Zrotation Xrotation Yrotation
		JOINT RightLeg
		{
			OFFSET 0.00000 -42.11790 0.00000
			CHANNELS 3 Zrotation Xrotation Yrotation
			JOINT RightFoot
			{
				OFFSET 0.00000 -45.00020 -0.00001
				CHANNELS 3 Zrotation Xrotation Yrotation
				JOINT RightForeFoot
				{
					OFFSET 0.00000 -3.74820 0.00000
					CHANNELS 3 Zrotation Xrotation Yrotation
					JOINT RightToeBase
					{
						OFFSET 0.00000 0.06325 14.43120
						CHANNELS 3 Zrotation Xrotation Yrotation
						End site
						{
							OFFSET 0.00000 0.00000 0.00000
						}
					}
				}
			}
		}
	}
	JOINT LeftUpLeg
	{
		OFFSET 9.98441 0.00000 0.00000
		CHANNELS 3 Zrotation Xrotation Yrotation
		JOINT LeftLeg
		{
			OFFSET 0.00000 -42.11800 0.00000
			CHANNELS 3 Zrotation Xrotation Yrotation
			JOINT LeftFoot
			{
				OFFSET 0.00000 -45.00070 0.00000
				CHANNELS 3 Zrotation Xrotation Yrotation
				JOINT LeftForeFoot
				{
					OFFSET 0.00000 -3.74824 0.00000
					CHANNELS 3 Zrotation Xrotation Yrotation
					JOINT LeftToeBase
					{
						OFFSET 0.00000 0.06325 14.43110
						CHANNELS 3 Zrotation Xrotation Yrotation
						End site
						{
							OFFSET 0.00000 0.00000 0.00000
						}
					}
				}
			}
		}
	}
}
MOTION
Frames: 4
Frame Time: 0.050000
-0.030216375166472242 -0.0390302256041245 0.0035347972293530644 0.021704102707840445 0.025593667569061347 -0.03163479970355 -3.6138038849624787 7.3617486340277765 -0.6747399686496949 -0.6518091402719908 2.959219684394425 0.35528239739006884 -0.7471112260202623 0.24683895966212716 -1.8727932746756577 -0.34669316407688316 0.3839357563073555 -1.0198489948710658 -0.5309343486067825 8.667876242102897 0.38542573494049476 -0.1857279165830991 -0.6276864760313039 -1.4309489012354757 -0.3406029816034351 -14.29271995716895 -0.032076878236869485 4.075472555781048 -0.142038287539206 -10.413173743920204 70.73722649931892 -7.366760007081823 30.937861273117008 39.36889635755538 15.348892359051751 103.89709700978219 20.962663617862432 -0.10675580096460892 -12.076063306850445 4.516739175739045 -0.1388687863103938 -1.5997064372998775 0.04115118227130289 -0.04119757643542383 -56.232049505739965 -0.024408365673673972 0.012601097284767469 -56.22944410030554 -38.78246927341147 -0.028424539102307373 0.04400001030325163 0.02846373986733347 -0.011908395177872599 0.013786745944273005 -0.01176823146007752 0.04000856386790518 0.004059702238549725 -36.67455198739577 0.020372488629239696 -0.022123807456320057 0.00033240605889944607 0.011001509084131791 -0.019220615416853378 0.027611177337407828 0.03332373926227517 0.01079104639527559 -19.755813926207587 -0.011824822102254422 -0.01566117570708233 0.002502400724424912 0.04012837744128873 0.03770232641517632 -0.019725322434919246 -0.00285058210967862 0.012333359728645086 24.052789654460195 -0.02812956920614664 -0.020947855755140746 28.874619404223534 -0.04830194114029144 -0.049863469424926254 28.880745810123205 -0.03159445194412627 0.02840539660206899 -0.8769907784831547 0.45517186460960896 8.827475709017735 -59.687451356549055 16.576645883389727 -37.27794486431672 -25.1000390988948 12.781909462121554 -101.9381273626456 -17.21331382008864 1.1744509824839098 -1.8364733197862368 -0.49141411149649294 0.04338781803717992 -8.140720546768556 -0.033369768914976165 0.010413352386602428 44.581752829432496 -0.04846383282856732 -0.041608877971039356 44.554904996604726 12.433350991863922 0.00602463977130102 0.03513416057120547 0.04427287872296897 -0.015056055121419876 0.0037065730425786163 0.0050208503406071175 -0.032252962154781184 -0.018242322688538346 11.129516827528665 -0.01574896838869515 0.049397991881966884 0.043693133234878445 -0.024120177060749818 0.0018844049477679677 0.00784778371379879 0.023402210063535153 -0.007556960986708241 4.784630956665395 -0.045720602865167374 -0.0028540503765487097 0.0058664382135280016 0.0379464969112499 0.02517993381609088 -0.004711749345217931 -0.04458301248335485 0.011246528707378346 -5.636294536663692 0.02423323497755303 0.016961054010751063 -6.724218764015994 0.02143949441017006 0.006346063903458302 -6.756237811450401 -0.012397258467010962 0.008099921150958277 -0.02733435996592561 -0.04301861310988968 0.03776741962908746 8.062095292101917 3.5098086407539477 -19.239390704783172 -0.014165038464779612 10.408950871864262 -0.0206585125444811 -5.626618204790037 -15.639436295939776 3.229944456962598 -0.025709585791181523 -0.010365418270292132 0.0042197008713210065 -0.009972459049865752 4.682542492309007 -0.04516637799008779 12.412154639620567 -8.237372110001528 6.852800860936755 -0.032550216476263626 46.406259929013444 0.0015785878319755943 -4.370226698677683 -14.728104008301482 -3.851797404049116 -0.019729745340804957 -0.014267419577626098 0.04577005772906757 0.021330442623173376 -10.761006760986954 -0.01592050028964096 
-0.028118463133800526 0.009606948085476031 -0.007568632078505783 0.031203154693980162 0.027729331000472292 -0.021088371752070123 -3.5097785992795267 7.3996478907495185 -0.7197801139517741 -0.6599878591659908 2.989535040324711 0.32547038906097514 -0.7308138221698233 0.3400793151938097 -1.9141777629921342 -0.2582390241005367 0.40253688785523134 -1.091063569305783 -0.5688511982071096 8.739127133338773 0.35829166647943766 -0.19624345543911295 -0.701928410877087 -1.4051130950540296 -0.333296311602574 -14.410834060581019 0.010710970450547638 4.114918231245911 -0.1343721079003124 -10.475902514702415 70.95514624829102 -6.9058710806056665 31.57689640403177 43.04556580029884 16.302416217792032 102.93571191327986 21.17697367955114 0.01362074740225433 -12.637933212220597 4.511477446601432 -0.16902639952803356 -1.5832276184451934 0.0019967690928084244 0.013792032152975671 -56.27571838906235 0.01589931603807056 0.016105997281099044 -56.22445286473171 -38.72989849914417 0.015505688589188878 0.03234074937417369 -0.040094719398693884 -0.049902671121458804 0.016033532461363017 -0.03845619717715584 -0.032340070307668195 -0.010450303496071608 -36.710238751187035 0.04114761897569167 -0.007895771026999232 -0.00915956567931202 0.018266157669915413 -0.0486495758261008 -0.03509604944660735 0.032046152195073535 -4.143784616102794e-05 -19.772524441102064 0.007178839747118345 0.03449899618048833 0.02346622583934423 0.010348805418241595 0.040362083109264014 -0.03920699746116924 0.04010201747702897 -0.03990739546345072 24.02368158044778 0.018696049892034706 0.030299310047847274 28.86914120844824 -0.026207200454671106 0.00823918930024309 28.887999391038445 0.018200921076490725 0.024307727193425582 -0.838244237921485 0.46117318243502947 8.771009685471412 -58.736202122405345 17.4220859602492 -38.61429496337974 -26.051626263300992 14.168133359009163 -100.52971516258728 -18.544830486051666 1.3955651428459823 -2.0018430631020014 -0.44827611422034763 0.0494357808178698 -8.085375655000846 0.04874701678349022 0.02378144742311828 44.585866165796766 0.0353955624447726 0.025980595564974625 44.5420217372173 12.425389334475064 0.010062488520909093 0.03514791486127528 -0.03719678343846973 -0.030302483286152496 -0.03605931316790143 -0.02722070304189422 -0.004581686150366376 -0.027227709646374516 11.124726506870905 0.038141226590757624 -0.0020331849362152593 -0.006740501579373115 0.013266602053688367 0.0374909187266255 -0.027623900690878795 0.00592671648851404 -0.01188571613841629 4.801985056393241 -0.031529671952943164 -0.02372103913352557 0.03201077158804905 0.020799138671582416 -0.03434367162921879 0.023902640179085895 0.02700724819442391 0.017112873429049075 -5.620743112492124 -0.0384072817641387 -0.03713815293603379 -6.68137816557767 0.03562077800046755 -0.002317895140503903 -6.714110285734911 -0.009020462614547274 0.013464042405694819 -0.04918409254798598 -0.01959311061894508 0.01941715519292011 8.094402345826188 3.4843103278038234 -19.22802161563425 0.03623336293603262 10.415966257630473 0.012156007051237795 -5.578988539583505 -15.700194880907697 3.235176101065446 0.017754702559692824 -0.04454126579489646 -0.01221571637264819 -0.04909245966525844 4.669792354378902 -0.039849774502663936 12.45450232165927 -8.263457618084868 6.870995939075822 0.01767285310044301 46.421198947930726 -0.005525366117451112 -4.316585612386492 -14.744992830066105 -3.8636534970233787 -0.0018896559901861328 -0.021957822596228003 -0.013415305811854863 -0.04314351418279734 -10.697364991563152 0.003125243019441996 
0.008635613099519454 -0.024852093839768857 -0.026241688921756517 -0.02049431362290742 -0.01705882053348076 -0.025797994627243345 -3.519748993409576 7.388076983768049 -0.7511757964907579 -0.6788691850305033 3.0760983833117477 0.3753804191193263 -0.7401244081510362 0.3704193829258482 -2.0337793575501824 -0.07751001948127355 0.48330928754110164 -1.0408502623585896 -0.5279698548246312 8.744923474130628 0.24232690008310004 -0.19201290681801436 -0.7937770759244015 -1.404265832721923 -0.3010319915237842 -14.474811853455947 -0.0013097086972717782 4.169654726753 -0.2553842494077832 -10.488083081457935 70.61284536147869 -5.7772210477793875 31.405158951054723 45.12566264947448 16.45303926774922 102.19318081070932 21.175633849010186 -0.05416586339986691 -12.849983065215364 4.531909665802596 -0.09508987018173166 -1.6356356088068045 0.049849592178890054 -0.03162771456688181 -56.24011379869415 -0.0492622472637185 0.022116244058845696 -56.19437813270066 -38.73148216154043 -0.03580474201660909 0.0011958967145830437 -0.019487949502223018 0.038685443254621615 -0.021841985611082373 0.026797563172821337 -0.018244003793583166 0.024470553361711767 -36.70492467470212 -0.04165150388986274 -0.025315986878708115 0.016354437946364563 0.006887602777380899 0.038939148492484685 0.009170853430224696 -0.016151220574565747 -0.04181483667505959 -19.734056317293977 0.016579856352491193 -0.024384475490712258 0.032736355710402065 -0.034505149831833705 -0.0003892342688639969 0.00298714282710743 -0.00037387347452569726 -0.024341631469196965 24.050043486568523 -0.04013996007775188 0.009197822622007936 28.86264092520632 -0.03473733148541188 -0.017818989420452406 28.833387417245376 0.021767007674053384 -0.02197315247536326 -0.8396816066747236 0.4142948700128484 8.778214958479287 -57.58560749609198 18.792605892044 -39.01051819000451 -25.299971111220827 14.528877800112907 -99.01584463419971 -19.526414997202817 1.6285804790130376 -2.091326887930026 -0.43289857778856405 0.11079090680873319 -8.10647054761507 0.03963460692685963 0.025043220310249328 44.54675946071767 -0.016964196047462615 0.03379382612171752 44.52078938674305 12.44665503607596 0.021749541571583805 0.04366380661606949 -0.023018150171191493 0.041012308862405845 -0.03784172761868331 -0.023878394917136232 -0.03847503907820372 -0.032237767426623314 11.097371969694724 -0.043938778233856536 -0.004781995846792246 -0.036942660202267205 -0.024417692637036043 -0.04543905763968825 0.038588603527858936 0.04580003647450726 -0.046432428636938416 4.723167579922448 0.007072538039227144 0.014088244504926555 -0.04394801448862504 0.019003624754024416 0.019269142621676935 -0.0037300536577734695 -0.017550771778367315 -0.034959742429635496 -5.5968754567265595 0.03885175290492875 -0.006047020816958832 -6.67663062797414 -0.042337611892775795 0.0027286311909193997 -6.690179573289431 0.003382306768961756 -0.015490677822188608 0.024554081008368617 0.02022180073363649 0.012295084059046458 8.020221635486685 3.5172435094040675 -19.20169891671725 0.010111389003031152 10.35235118476307 -0.00322723406082593 -5.659933562940939 -15.69611305869271 3.233807009483697 0.03981935417379138 -0.007581208009084041 0.01029998822228604 0.004019272905185227 4.698789032490068 0.016215353455903074 12.471732226536194 -8.252401573888866 6.854752517654009 -0.03055201990085363 46.33944665194142 -0.018857004818491063 -4.332209734923815 -14.732831701006804 -3.8403234317179664 0.039200579118961056 -0.04788841775132937 -0.022654099043977895 0.018592011079276466 -10.709390208581096 -0.04202266871252812 
0.015339197975286984 -0.0022581259927389277 0.0032127368291847654 -0.02320074420945619 -0.014178659805615838 -0.04009004937022968 -3.4580282196697847 7.330487628886857 -0.6923857897581094 -0.681528400849389 3.1117641353661822 0.336318845495506 -0.6968980326299816 0.44709841231142095 -2.096267955229382 0.06439629984526868 0.466993772995824 -1.1160996191813706 -0.6145980016674077 8.79036370083996 0.23881893798590506 -0.2126826611392276 -0.8327485547034258 -1.4857272766110383 -0.34821338705217497 -14.636583329536034 -0.07999639568815042 4.5311176701246385 -0.3555966393793299 -10.602361368215409 70.02418056578587 -4.096151641879036 30.00095530196636 47.16375228107418 16.385016224021225 101.85345346278594 21.479192706250743 0.030234368670191344 -13.228604401600712 4.546243997066205 -0.08413596604802599 -1.6035077271300469 -0.028387699292778765 0.03642170037778219 -56.18605797288154 0.011361390859703294 0.04736545361051629 -56.22197852432898 -38.81048197701853 0.0005019285571768984 0.03188156403524815 0.03980623562169235 -0.02313566169928666 0.015376649306508157 0.02966801223458951 0.006736745281713654 -0.021021774332883436 -36.65306227203434 -0.028397314524782703 -0.0034286471076481894 -0.010115253624169996 0.003544657520926836 0.045198219288752256 0.02123460865193754 0.03442210739429259 0.03234978975488006 -19.741795749451338 0.03087546398844984 0.046663271591579215 -0.03964848251587592 -0.02076570753095753 0.006861794541189019 0.03393626561981271 0.0027618692623440234 -0.010717273318531116 24.059564841853632 0.0017528095618511794 0.016624908396090977 28.855587102797667 -0.014526472899760653 0.046059711686786596 28.82663792628397 -0.020833643089786982 0.007096224349328036 -1.0690534880013396 0.34732284262650015 8.82132718174792 -56.28897277190941 20.733823352688205 -38.83510174682829 -24.125383216265895 14.43670169567715 -98.09517489943872 -20.457132426838886 1.8534096732037366 -2.1792354298055674 -0.5110151440285263 0.10889370277421451 -8.123070468298181 -0.04784615585492998 -0.031516004029817246 44.565040828328634 0.03939573808859266 0.03187285843783942 44.59690111713053 12.426244442792203 0.047845041491316714 0.011234822640310702 -0.005488912318007637 -0.009354820545063093 -0.04910052986578711 0.011310829391254044 0.03143106365866118 -0.046220165819817534 11.083724852360705 -0.048770553431590855 0.0030783524147801346 0.00787237677027472 -0.010557466939826659 -0.029175742240032082 0.04597219438586306 0.031015517450131914 -0.04325759218497858 4.751257288144857 -0.008332956109466673 -0.008155447548131281 0.0019237990854872006 0.009889742077032068 0.03772587717777726 0.020236484973568624 0.0497983200162359 0.03170563509936154 -5.58438305856992 -0.026776917104070735 -0.001477436100494998 -6.687598013232118 -0.017589716941526164 0.008422608298070566 -6.675463632040305 0.026549653419963185 0.023466635323732405 0.019073571060394954 -0.006220529170650864 0.007737815907839927 8.071603685829126 3.44602854448382 -19.21141238683889 -0.006658557392650656 10.424575445167504 0.015233103553382702 -5.618656860580451 -15.661828915448533 3.232462160493689 0.010291848062548896 -0.008036065914762186 0.044666895622716966 0.02409401158968431 4.674769127092602 -0.035699989046541064 12.436954108537398 -8.211285311515487 6.912677034711758 -0.03528044871757475 46.37246589532246 -0.0003451628115500921 -4.318199521825317 -14.777550249341704 -3.8494209455843644 0.01932175264345466 -0.0034710115126843086 0.0006095678045879134 -0.01738080069513228 -10.782944500474436 0.003173132978523175 
